<svg width="200" height="37" viewBox="0 0 200 37" fill="none" xmlns="http://www.w3.org/2000/svg">
<path d="M48.0534 6.55393H53.3852C55.2054 6.55393 56.533 6.98651 57.3681 7.85167C58.2032 8.69519 58.6207 10.0037 58.6207 11.7773V12.6857C58.6207 13.8537 58.428 14.8054 58.0426 15.5408C57.6786 16.2761 57.1111 16.8061 56.3402 17.1305V17.1954C58.0961 17.801 58.974 19.3799 58.974 21.9321V23.8787C58.974 25.6307 58.5137 26.9717 57.5929 27.9017C56.6936 28.8101 55.3659 29.2643 53.6101 29.2643H48.0534V6.55393ZM52.9677 15.8003C53.6743 15.8003 54.1989 15.6165 54.5415 15.2488C54.9056 14.8811 55.0876 14.2647 55.0876 13.3995V12.1342C55.0876 11.3123 54.9377 10.7175 54.6379 10.3498C54.3595 9.98212 53.9099 9.79827 53.2889 9.79827H51.5866V15.8003H52.9677ZM53.6101 26.02C54.2311 26.02 54.6914 25.8578 54.9912 25.5333C55.291 25.1873 55.4409 24.6033 55.4409 23.7814V21.8024C55.4409 20.7642 55.2589 20.0504 54.8949 19.6611C54.5523 19.2501 53.9741 19.0447 53.1604 19.0447H51.5866V26.02H53.6101Z" fill="#EDEDED"/>
<path d="M63.7694 6.55393H68.5552L72.2168 29.2643H68.6837L68.0413 24.7547V24.8196H64.0263L63.3839 29.2643H60.1078L63.7694 6.55393ZM67.6237 21.7375L66.0499 10.512H65.9856L64.4439 21.7375H67.6237Z" fill="#EDEDED"/>
<path d="M73.9309 6.55393H77.4641V26.02H83.2777V29.2643H73.9309V6.55393Z" fill="#EDEDED"/>
<path d="M84.972 6.55393H88.5052V16.1247L93.0019 6.55393H96.535L92.3274 14.8919L96.5993 29.2643H92.9055L89.9184 19.142L88.5052 22.0295V29.2643H84.972V6.55393Z" fill="#EDEDED"/>
<path d="M101.002 6.55393H105.787L109.449 29.2643H105.916L105.274 24.7547V24.8196H101.259L100.616 29.2643H97.34L101.002 6.55393ZM104.856 21.7375L103.282 10.512H103.218L101.676 21.7375H104.856Z" fill="#EDEDED"/>
<path d="M111.163 6.55393H115.596L119.033 20.1477H119.097V6.55393H122.244V29.2643H118.615L114.375 12.6857H114.311V29.2643H111.163V6.55393Z" fill="#EDEDED"/>
<path d="M130.015 6.55393H135.057L137.306 22.8081H137.37L139.618 6.55393H144.661V29.2643H141.321V12.0693H141.256L138.687 29.2643H135.732L133.162 12.0693H133.098V29.2643H130.015V6.55393Z" fill="#EDEDED"/>
<path d="M152.405 29.5888C150.67 29.5888 149.343 29.0913 148.422 28.0964C147.501 27.1014 147.041 25.6956 147.041 23.8787V11.9395C147.041 10.1227 147.501 8.71682 148.422 7.72189C149.343 6.72696 150.67 6.22949 152.405 6.22949C154.139 6.22949 155.467 6.72696 156.388 7.72189C157.308 8.71682 157.769 10.1227 157.769 11.9395V23.8787C157.769 25.6956 157.308 27.1014 156.388 28.0964C155.467 29.0913 154.139 29.5888 152.405 29.5888ZM152.405 26.3444C153.625 26.3444 154.235 25.5982 154.235 24.1058V11.7124C154.235 10.22 153.625 9.47384 152.405 9.47384C151.184 9.47384 150.574 10.22 150.574 11.7124V24.1058C150.574 25.5982 151.184 26.3444 152.405 26.3444Z" fill="#EDEDED"/>
<path d="M160.158 6.55393H165.49C167.31 6.55393 168.638 6.98651 169.473 7.85167C170.308 8.69519 170.725 10.0037 170.725 11.7773V12.6857C170.725 13.8537 170.533 14.8054 170.147 15.5408C169.783 16.2761 169.216 16.8061 168.445 17.1305V17.1954C170.201 17.801 171.079 19.3799 171.079 21.9321V23.8787C171.079 25.6307 170.618 26.9717 169.698 27.9017C168.798 28.8101 167.471 29.2643 165.715 29.2643H160.158V6.55393ZM165.072 15.8003C165.779 15.8003 166.304 15.6165 166.646 15.2488C167.01 14.8811 167.192 14.2647 167.192 13.3995V12.1342C167.192 11.3123 167.042 10.7175 166.743 10.3498C166.464 9.98212 166.014 9.79827 165.394 9.79827H163.691V15.8003H165.072ZM165.715 26.02C166.336 26.02 166.796 25.8578 167.096 25.5333C167.396 25.1873 167.546 24.6033 167.546 23.7814V21.8024C167.546 20.7642 167.364 20.0504 166.999 19.6611C166.657 19.2501 166.079 19.0447 165.265 19.0447H163.691V26.02H165.715Z" fill="#EDEDED"/>
<path d="M173.144 6.55393H176.677V29.2643H173.144V6.55393Z" fill="#EDEDED"/>
<path d="M179.323 6.55393H182.856V26.02H188.67V29.2643H179.323V6.55393Z" fill="#EDEDED"/>
<path d="M190.364 6.55393H200V9.79827H193.897V15.8003H198.747V19.0447H193.897V26.02H200V29.2643H190.364V6.55393Z" fill="#EDEDED"/>
<path d="M35.1365 0C35.7065 0 36.2247 0.33012 36.4649 0.84619L40.1306 8.72435C40.3171 9.12513 40.3121 9.5886 40.1169 9.98521L36.3822 17.5724C36.1856 17.9718 36.1819 18.4388 36.3722 18.8412L40.1245 26.7794C40.3147 27.1818 40.311 27.6488 40.1144 28.0482L36.4734 35.4452C36.2272 35.9455 35.7173 36.2625 35.1589 36.2625H20.0102L28.9778 20.5369C29.478 19.6596 28.8434 18.5699 27.8322 18.5699H17.0245C16.5507 18.5699 16.1133 18.8238 15.8789 19.2349L6.16888 36.2625H1.46469C0.655767 36.2625 0 35.6079 0 34.8003V1.4622C4.52961e-07 0.654649 0.655766 0 1.46469 0H12.506L3.66302 15.507C3.1072 16.4818 3.81238 17.6926 4.9359 17.6926H15.4065C15.9329 17.6926 16.4189 17.4105 16.6793 16.9538L26.3473 0H35.1365Z" fill="url(#paint0_linear_145_125)"/>
<defs>
<linearGradient id="paint0_linear_145_125" x1="3.18763e-07" y1="36.2625" x2="42.9175" y2="-4.44838" gradientUnits="userSpaceOnUse">
<stop offset="0.461538" stop-color="#FF7B02"/>
<stop offset="1" stop-color="#FEB300"/>
</linearGradient>
</defs>
</svg>
