<svg width="141" height="32" viewBox="0 0 141 32" fill="none" xmlns="http://www.w3.org/2000/svg">
<path fill-rule="evenodd" clip-rule="evenodd" d="M14.2446 0L23.0888 28.3393L31.933 0H43.0724C45.6563 0 47.1058 2.97581 45.513 5.01036L25.5295 30.5355C24.2885 32.1206 21.8892 32.1207 20.6482 30.5355L0.66475 5.01037C-0.928093 2.97581 0.521463 0 3.10537 0H14.2446Z" fill="url(#paint0_linear_936_16)"/>
<path d="M61.0597 7.09091L65.63 21.4574H65.8054L70.3849 7.09091H74.8168L68.2983 26H63.1463L56.6186 7.09091H61.0597ZM81.8823 26.277C80.4235 26.277 79.1678 25.9815 78.1152 25.3906C77.0688 24.7936 76.2625 23.9503 75.6962 22.8608C75.1299 21.7652 74.8468 20.4695 74.8468 18.9737C74.8468 17.5149 75.1299 16.2346 75.6962 15.1328C76.2625 14.031 77.0596 13.1723 78.0875 12.5568C79.1216 11.9413 80.3342 11.6335 81.7253 11.6335C82.6609 11.6335 83.5319 11.7843 84.3382 12.0859C85.1507 12.3814 85.8586 12.8277 86.4618 13.4247C87.0712 14.0218 87.5452 14.7727 87.8837 15.6776C88.2222 16.5762 88.3915 17.6288 88.3915 18.8352V19.9155H76.4164V17.478H84.6891C84.6891 16.9117 84.566 16.41 84.3198 15.973C84.0736 15.536 83.7319 15.1944 83.2949 14.9482C82.8641 14.6958 82.3624 14.5696 81.79 14.5696C81.1929 14.5696 80.6635 14.7081 80.2019 14.9851C79.7464 15.2559 79.3894 15.6222 79.1309 16.0838C78.8723 16.5393 78.74 17.0471 78.7338 17.6072V19.9247C78.7338 20.6264 78.8631 21.2327 79.1216 21.7436C79.3863 22.2545 79.7587 22.6484 80.2388 22.9254C80.7189 23.2024 81.2883 23.3409 81.9469 23.3409C82.3839 23.3409 82.784 23.2794 83.1472 23.1562C83.5104 23.0331 83.8212 22.8485 84.0797 22.6023C84.3382 22.3561 84.5352 22.0545 84.6706 21.6974L88.3084 21.9375C88.1238 22.8116 87.7452 23.5748 87.1728 24.2273C86.6065 24.8736 85.874 25.3783 84.9753 25.7415C84.0828 26.0985 83.0518 26.277 81.8823 26.277ZM90.9583 26V11.8182H94.7715V14.2926H94.9192C95.1777 13.4124 95.6117 12.7476 96.2211 12.2983C96.8304 11.8428 97.5321 11.6151 98.3262 11.6151C98.5231 11.6151 98.7355 11.6274 98.9632 11.652C99.191 11.6766 99.391 11.7105 99.5634 11.7536V15.2436C99.3787 15.1882 99.1233 15.139 98.7971 15.0959C98.4708 15.0528 98.1723 15.0312 97.9015 15.0312C97.3229 15.0312 96.8058 15.1574 96.3503 15.4098C95.901 15.656 95.544 16.0007 95.2793 16.4439C95.0208 16.8871 94.8915 17.398 94.8915 17.9766V26H90.9583ZM109.851 11.8182V14.7727H101.311V11.8182H109.851ZM103.25 8.42045H107.183V21.642C107.183 22.0052 107.238 22.2884 107.349 22.4915C107.46 22.6884 107.614 22.8269 107.811 22.907C108.014 22.987 108.248 23.027 108.512 23.027C108.697 23.027 108.882 23.0116 109.066 22.9808C109.251 22.9439 109.393 22.9162 109.491 22.8977L110.11 25.8246C109.913 25.8861 109.636 25.9569 109.279 26.0369C108.922 26.1231 108.488 26.1754 107.977 26.1939C107.029 26.2308 106.198 26.1046 105.484 25.8153C104.776 25.526 104.225 25.0767 103.831 24.4673C103.437 23.858 103.243 23.0885 103.25 22.1591V8.42045ZM118.724 26.277C117.265 26.277 116.01 25.9815 114.957 25.3906C113.911 24.7936 113.104 23.9503 112.538 22.8608C111.972 21.7652 111.689 20.4695 111.689 18.9737C111.689 17.5149 111.972 16.2346 112.538 15.1328C113.104 14.031 113.901 13.1723 114.929 12.5568C115.963 11.9413 117.176 11.6335 118.567 11.6335C119.503 11.6335 120.374 11.7843 121.18 12.0859C121.993 12.3814 122.7 12.8277 123.304 13.4247C123.913 14.0218 124.387 14.7727 124.725 15.6776C125.064 16.5762 125.233 17.6288 125.233 18.8352V19.9155H113.258V17.478H121.531C121.531 16.9117 121.408 16.41 121.162 15.973C120.915 15.536 120.574 15.1944 120.137 14.9482C119.706 14.6958 119.204 14.5696 118.632 14.5696C118.035 14.5696 117.505 14.7081 117.044 14.9851C116.588 15.2559 116.231 15.6222 115.973 16.0838C115.714 16.5393 115.582 17.0471 115.576 17.6072V19.9247C115.576 20.6264 115.705 21.2327 115.963 21.7436C116.228 22.2545 116.6 22.6484 117.081 22.9254C117.561 23.2024 118.13 23.3409 118.789 23.3409C119.226 23.3409 119.626 23.2794 119.989 23.1562C120.352 23.0331 120.663 22.8485 120.922 22.6023C121.18 22.3561 121.377 22.0545 121.512 21.6974L125.15 21.9375C124.966 22.8116 124.587 23.5748 124.015 24.2273C123.448 24.8736 122.716 25.3783 121.817 25.7415C120.925 26.0985 119.894 26.277 118.724 26.277ZM130.833 11.8182L133.437 16.7763L136.105 11.8182H140.14L136.031 18.9091L140.251 26H136.234L133.437 21.0973L130.685 26H126.623L130.833 18.9091L126.771 11.8182H130.833Z" fill="white"/>
<defs>
<linearGradient id="paint0_linear_936_16" x1="23.0889" y1="0" x2="23.0889" y2="31.7244" gradientUnits="userSpaceOnUse">
<stop stop-color="#A3D21D"/>
<stop offset="1" stop-color="#1DD25B"/>
</linearGradient>
</defs>
</svg>
